<?xml version="1.0" encoding="utf-8"?>
<?xml-stylesheet type="text/xsl" href="rss1.xsl"?>
<rss version="2.0" xmlns:atom="http://www.w3.org/2005/Atom" xmlns:content="http://purl.org/rss/1.0/modules/content/" xmlns:dc="http://purl.org/dc/elements/1.1/" xmlns:media="http://search.yahoo.com/mrss/">
<channel>
 <title>Getty</title>
 <link>http://www.gettyimg.com/</link>
 <atom:link href="http://www.gettyimg.com/" rel="self" type="application/rss+xml" />

 
                <item>
                <title><![CDATA[【UPSCALED】Avril Lavigne - When You're Gone (1080p Upscaled)]]></title>
                <link><![CDATA[https://sharemania.us/threads/avril-lavigne-when-youre-gone-1080p-upscaled.241274/]]></link>
                <description><![CDATA[<article>
<blockquote class="messageText SelectQuoteContainer ugc baseHtml">
<span style="color: #ff0000"><b><img src="https://i.ibb.co/QpC3fBL/Avril-Lavigne-When-You-re-Gone-1080p-Upscale-mkv-thumbs.png" class="bbCodeImage LbImage" alt="[​IMG]" data-url="https://i.ibb.co/QpC3fBL/Avril-Lavigne-When-You-re-Gone-1080p-Upscale-mkv-thumbs.png" style=""> </b><br>
<br>
<b>Screenshots:</b><br>
<b><img src="https://i.ibb.co/hMpZWPD/Avril-Lavigne-When-You-re-Gone-1080p-Upscale-mkv-snapshot-00-29-263.png" class="bbCodeImage LbImage" alt="[​IMG]" data-url="https://i.ibb.co/hMpZWPD/Avril-Lavigne-When-You-re-Gone-1080p-Upscale-mkv-snapshot-00-29-263.png" style=""> <img src="https://i.ibb.co/rHyvyYX/Avril-Lavigne-When-You-re-Gone-1080p-Upscale-mkv-snapshot-00-59-022.png" class="bbCodeImage LbImage" alt="[​IMG]" data-url="https://i.ibb.co/rHyvyYX/Avril-Lavigne-When-You-re-Gone-1080p-Upscale-mkv-snapshot-00-59-022.png" style=""> <img src="https://i.ibb.co/rwHMCRB/Avril-Lavigne-When-You-re-Gone-1080p-Upscale-mkv-snapshot-02-35-227.png" class="bbCodeImage LbImage" alt="[​IMG]" data-url="https://i.ibb.co/rwHMCRB/Avril-Lavigne-When-You-re-Gone-1080p-Upscale-mkv-snapshot-02-35-227.png" style=""> </b><br>
</span><br>
<span style="color: #000000">
<div class="ToggleTriggerAnchor bbCodeSpoilerContainer">
<button type="button" class="button bbCodeSpoilerButton ToggleTrigger Tooltip JsOnly" data-target="> .SpoilerTarget"><span>Spoiler: <span class="SpoilerTitle">MEDIAINFO</span></span></button>
<div class="SpoilerTarget bbCodeSpoilerText">General<br>
Format : Matroska<br>
Format version : Version 4<br>
File size : 996 MiB<br>
Duration : 4 min 0 s<br>
Overall bit rate : 34.8 Mb/s<br>
Frame rate : 29.970 FPS<br>
Writing application : Lavf60.20.100<br>
Writing library : Lavf60.20.100<br>
ErrorDetectionType : Per level 1<br>
VIDEOAI : Enhanced using prob-4; mode: manual; revert compression at 45; recover details at 15; sharpen at 15; reduce noise at 10; dehalo at 0; anti-alias/deblur at -28; focus fix Off; and recover original detail at 20. Changed resolution to 1920x1080<br>
<br>
Video<br>
ID : 1<br>
Format : HEVC<br>
Format/Info : High Efficiency Video Coding<br>
Format profile : Main@L6.2@High<br>
Codec ID : V_MPEGH/ISO/HEVC<br>
Duration : 4 min 0 s<br>
Bit rate : 31.8 Mb/s<br>
Width : 1 920 pixels<br>
Height : 1 080 pixels<br>
Display aspect ratio : 16:10<br>
Frame rate mode : Constant<br>
Frame rate : 29.970 (30000/1001) FPS<br>
Color space : YUV<br>
Chroma subsampling : 4:2:0<br>
Bit depth : 8 bits<br>
Bits/(Pixel*Frame) : 0.512<br>
Stream size : 910 MiB (91%)<br>
Writing library : Lavc60.37.100 hevc_amf<br>
Default : No<br>
Forced : No<br>
Color range : Limited<br>
Transfer characteristics : BT.709<br>
Matrix coefficients : BT.709<br>
<br>
Audio<br>
ID : 2<br>
Format : PCM<br>
Format settings : Little / Signed<br>
Codec ID : A_PCM/INT/LIT<br>
Duration : 4 min 0 s<br>
Bit rate mode : Constant<br>
Bit rate : 2 304 kb/s<br>
Channel(s) : 2 channels<br>
Sampling rate : 48.0 kHz<br>
Bit depth : 24 bits<br>
Stream size : 65.9 MiB (7%)<br>
Writing library : Lavc60.37.100 pcm_s24le<br>
Default : No<br>
Forced : No</div>
</div></span><br>
<span style="color: #000000">
<div class="bbCodeBlock bbCodeVfcHH HiddenContent">
<div class="attribution type">Hidden Content:</div>
<blockquote>You must reply before you can see the hidden data contained here.</blockquote>
</div></span>
<div class="messageTextEndMarker">&nbsp;</div>
</blockquote>
</article>]]></description>
                <author><![CDATA[Lalynsantiago]]></author>
                </item>

                </channel></rss>